<svg xmlns="http://www.w3.org/2000/svg" width="28" height="19"><path d="M23.337 15.986a3.035 3.035 0 1 1-3.035-3.012 3.023 3.023 0 0 1 3.035 3.012zm-3.035-1.158a1.158 1.158 0 1 0 1.167 1.158 1.163 1.163 0 0 0-1.169-1.158zm-9.1 1.158a3.035 3.035 0 1 1-3.035-3.012 3.023 3.023 0 0 1 3.033 3.012zm-3.035-1.158a1.158 1.158 0 1 0 1.167 1.158 1.162 1.162 0 0 0-1.169-1.158zm4.434-.463a.932.932 0 0 0 .934.926h2.389a4.441 4.441 0 0 1 8.76 0h2.391a.931.931 0 0 0 .933-.926V.928a.931.931 0 0 0-.933-.925h-13.54a.932.932 0 0 0-.934.925v13.437zm-2.334-12.51a.936.936 0 0 1 .934.927v9.994a4.448 4.448 0 0 0-7.415 2.515h-.989a2.8 2.8 0 0 1-2.8-2.78V8.342a6.524 6.524 0 0 1 6.536-6.487h3.735zM6.532 3.708a4.67 4.67 0 0 0-4.64 4.118.466.466 0 0 0 .464.516 1.663 1.663 0 0 0 .848-.213 9.114 9.114 0 0 1 4.5-1.178h1.167a.465.465 0 0 0 .466-.463V4.172a.465.465 0 0 0-.466-.464H6.53z" fill="#fff" fill-rule="evenodd"/></svg>