<svg xmlns="http://www.w3.org/2000/svg" width="25" height="18"><path d="M4.265 4.482a1.675 1.675 0 0 1 0 3.18L.828 8.791a.837.837 0 0 1-.834-.836V4.19a.836.836 0 0 1 .834-.836zm16.47 0a1.675 1.675 0 0 0 0 3.18l3.437 1.129a.837.837 0 0 0 .834-.836V4.19a.836.836 0 0 0-.834-.836zm-11.57 13.51a.837.837 0 0 1-.834-.836c0-2.772-2.986-5.019-6.669-5.019a.837.837 0 0 1-.834-.837v-1.189l3.826-1.256a2.931 2.931 0 0 0 0-5.565L.828 2.034V.845a.837.837 0 0 1 .834-.837h21.676a.837.837 0 0 1 .834.837v1.189L20.346 3.29a2.931 2.931 0 0 0 0 5.565l3.826 1.256V11.3a.837.837 0 0 1-.834.837c-3.683 0-6.669 2.247-6.669 5.019a.837.837 0 0 1-.834.836h-6.67z" fill="#fff" fill-rule="evenodd"/></svg>