<svg xmlns="http://www.w3.org/2000/svg" width="33" height="35"><path d="M25.283 10.291c3.364 3.8 3.2 9.011 2.734 12.027-3.044-3.178-8.251-5.927-10.664-7.082a35.391 35.391 0 0 1-5.465-3.172 14.18 14.18 0 0 0 1.033 1.428q.776.785 1.568 1.572a44.759 44.759 0 0 0 2.466 2.083q.855.584 1.834 1.2a47.542 47.542 0 0 1 8.317 6.638q.526.526 1.025 1.06a30.508 30.508 0 0 1 4.736 6.406 1.167 1.167 0 0 1-.467 1.544l-1.5.886a.906.906 0 0 1-1.295-.47 26.279 26.279 0 0 0-5.287-7.906C12.244 32.132 4.63 23.046 2.564 19.17-2 10.6.923 0 .923 0c5.224 8.2 18.184 3.315 24.36 10.291z" fill="#00a651" fill-rule="evenodd"/></svg>