<svg xmlns="http://www.w3.org/2000/svg" width="21" height="21"><path d="M13.65 10.5a3.15 3.15 0 1 1-3.15-3.151 3.15 3.15 0 0 1 3.15 3.151zm7.31-1.007a.362.362 0 0 0-.26-.3l-2.2-.625a.367.367 0 0 1-.25-.243 7.791 7.791 0 0 0-.73-1.764.347.347 0 0 1 0-.342l1.12-2a.354.354 0 0 0-.03-.394 10.631 10.631 0 0 0-1.43-1.424.337.337 0 0 0-.39-.036l-2.01 1.119a.339.339 0 0 1-.34 0 7.97 7.97 0 0 0-1.76-.731.333.333 0 0 1-.24-.242L11.81.305a.348.348 0 0 0-.3-.254 10.845 10.845 0 0 0-2.02 0 .348.348 0 0 0-.3.254l-.63 2.206a.333.333 0 0 1-.24.242 7.97 7.97 0 0 0-1.76.731.339.339 0 0 1-.34 0L4.21 2.365a.337.337 0 0 0-.39.036 10.631 10.631 0 0 0-1.43 1.424.354.354 0 0 0-.03.394l1.12 2a.347.347 0 0 1 0 .342 7.791 7.791 0 0 0-.73 1.764.367.367 0 0 1-.25.243l-2.2.625a.362.362 0 0 0-.26.3C.01 9.824 0 10.16 0 10.5s.01.676.04 1.007a.362.362 0 0 0 .26.3l2.2.626a.333.333 0 0 1 .24.242 8.306 8.306 0 0 0 .74 1.764.347.347 0 0 1 0 .342l-1.12 2a.354.354 0 0 0 .03.394 10.631 10.631 0 0 0 1.43 1.424.337.337 0 0 0 .39.036l2.01-1.118a.339.339 0 0 1 .34 0 7.925 7.925 0 0 0 1.76.732.333.333 0 0 1 .24.242l.63 2.206a.348.348 0 0 0 .3.254 10.845 10.845 0 0 0 2.02 0 .348.348 0 0 0 .3-.254l.63-2.206a.333.333 0 0 1 .24-.242 7.925 7.925 0 0 0 1.76-.732.339.339 0 0 1 .34 0l2.01 1.118a.337.337 0 0 0 .39-.036 10.631 10.631 0 0 0 1.43-1.424.354.354 0 0 0 .03-.394l-1.12-2a.347.347 0 0 1 0-.342 8.306 8.306 0 0 0 .74-1.764.333.333 0 0 1 .24-.242l2.2-.626a.362.362 0 0 0 .26-.3c.03-.331.04-.667.04-1.007s-.01-.676-.04-1.007z" fill="#fff" fill-rule="evenodd"/></svg>